<?xml version="1.0" encoding="UTF-8"?>
<svg id="Layer_1" data-name="Layer 1" xmlns="http://www.w3.org/2000/svg" viewBox="0 0 262.85 76.24">
  <defs>
    <style>
      .cls-1 {
        fill: none;
        stroke: #000;
        stroke-miterlimit: 10;
      }

      .cls-2 {
        fill: #f1b21d;
      }

      .cls-3 {
        fill: #ed2024;
      }

      .cls-4 {
        fill: #1b1b1b;
      }

      .cls-5 {
        fill: #29b34c;
      }
    </style>
  </defs>
  <path d="m58.71,57.8l18.33-45.78h7.33l18.3,45.78h-9.77l-4.44-12.38h-15.49l-4.47,12.38h-9.77Zm21.99-33.4l-4.65,12.35h9.27l-4.62-12.35Z"/>
  <path class="cls-4" d="m10.97,46.71c0,1.99.43,3.52,1.28,4.59.85,1.07,2.07,1.6,3.63,1.6,1.37,0,2.53-.5,3.49-1.51s1.43-2.29,1.43-3.87c0-1.27-.37-2.43-1.12-3.47-.75-1.05-1.77-1.87-3.08-2.48l-6.38-2.9c-2.34-1.09-4.24-2.76-5.68-5.01-1.44-2.25-2.16-4.71-2.16-7.37,0-3.82,1.37-7.07,4.11-9.72,2.66-2.58,5.79-3.87,9.39-3.87s6.68,1.29,9.33,3.87c2.72,2.66,4.08,5.9,4.08,9.72h-9.15c0-1.75-.37-3.11-1.12-4.09-.74-.98-1.79-1.46-3.14-1.46-1.27,0-2.31.41-3.13,1.24-.81.82-1.22,1.85-1.22,3.08,0,2.37,1.28,4.15,3.84,5.36l6.35,3c2.52,1.2,4.52,2.99,6,5.36,1.48,2.37,2.22,4.95,2.22,7.74,0,1.84-.34,3.62-1.03,5.36-.69,1.73-1.65,3.28-2.91,4.62-2.72,2.96-6.1,4.44-10.13,4.44s-7.4-1.49-10.16-4.47c-1.23-1.33-2.19-2.85-2.88-4.56-.69-1.71-1.03-3.44-1.03-5.19v-.6h9.15v.6Z"/>
  <path d="m107.17,59.21l-17.96-43.68,8.47-1.21,11.66,29.85,2.86-31.92,7.23-1.03,11.66,29.85,2.86-31.92,8.47-1.21-5.02,46.96-7.26,1.03-12.26-29.85-3.46,32.09-7.23,1.03Z"/>
  <g>
    <path class="cls-2" d="m159.97,43.97c-.61-.72-1.4-1.29-2.37-1.72s-1.95-.65-2.92-.65c-.83,0-1.67.16-2.52.47s-1.6.75-2.27,1.3c-1.63,1.43-2.44,3.3-2.44,5.6s.81,4.16,2.44,5.6c.67.59,1.42,1.06,2.27,1.39s1.69.5,2.52.5c.99,0,1.97-.22,2.93-.65s1.75-1.01,2.36-1.73h5.26c-.99,2.04-2.43,3.64-4.33,4.8-1.9,1.16-3.97,1.74-6.22,1.74-1.65,0-3.2-.32-4.67-.95s-2.75-1.55-3.86-2.74c-1.02-1.08-1.81-2.32-2.37-3.7s-.84-2.79-.84-4.21.28-2.82.84-4.2,1.35-2.61,2.37-3.71c1.11-1.19,2.39-2.1,3.86-2.73s3.02-.94,4.67-.94c2.25,0,4.33.58,6.22,1.73s3.34,2.75,4.33,4.8h-5.26Z"/>
    <path class="cls-2" d="m165.8,60.02l9.04-22h3.62l9.02,22h-4.82l-2.19-5.95h-7.64l-2.2,5.95h-4.82Zm10.85-16.05l-2.29,5.94h4.57l-2.28-5.94Z"/>
    <path class="cls-2" d="m194.4,51.09v8.93h-4.51v-22h7.83c1.83,0,3.39.64,4.68,1.92,1.29,1.28,1.93,2.82,1.93,4.63s-.64,3.35-1.93,4.62c-1.29,1.27-2.85,1.91-4.68,1.91h-3.32Zm3.01-3.86c.63,0,1.19-.26,1.67-.77.49-.51.74-1.15.74-1.9s-.25-1.39-.74-1.91c-.49-.52-1.05-.78-1.67-.78h-3.01v5.36h3.01Z"/>
    <path class="cls-2" d="m206.6,60.02v-22h4.51v22h-4.51Z"/>
    <path class="cls-2" d="m217.12,60.02v-17.84h-3.76v-4.17h12.04v4.17h-3.76v17.84h-4.51Z"/>
    <path class="cls-2" d="m226,60.02l9.04-22h3.62l9.02,22h-4.82l-2.19-5.95h-7.64l-2.2,5.95h-4.82Zm10.85-16.05l-2.29,5.94h4.57l-2.28-5.94Z"/>
    <path class="cls-2" d="m261.23,55.85v4.17h-11.14v-22h4.51v17.84h6.63Z"/>
  </g>
  <line class="cls-1" x1="38.15" y1="60.02" x2="38.15" y2="40.6"/>
  <line class="cls-1" x1="38.15" y1="34.26" x2="38.15" y2="14.84"/>
  <rect class="cls-5" x="33.35" y="19.02" width="9.6" height="36.2" transform="translate(76.31 74.24) rotate(-180)"/>
  <line class="cls-1" x1="53.32" y1="60.02" x2="53.32" y2="40.6"/>
  <rect x="36.38" y="35.03" width="17.79" height="3.03" rx="1.41" ry="1.41"/>
  <line class="cls-1" x1="53.32" y1="34.26" x2="53.32" y2="14.84"/>
  <rect class="cls-3" x="48.52" y="19.02" width="9.6" height="27.01" transform="translate(106.64 65.05) rotate(-180)"/>
  <line class="cls-1" x1="62.92" y1="36.79" x2="62.92" y2="10.74"/>
  <rect class="cls-5" x="58.12" y="12.54" width="9.6" height="4.6" transform="translate(125.84 29.68) rotate(-180)"/>
</svg>